<?xml version="1.0" standalone="no"?>
<!DOCTYPE svg PUBLIC "-//W3C//DTD SVG 20010904//EN"
 "http://www.w3.org/TR/2001/REC-SVG-20010904/DTD/svg10.dtd">
<svg version="1.0" xmlns="http://www.w3.org/2000/svg"
 width="1024.000000pt" height="1024.000000pt" viewBox="0 0 1024.000000 1024.000000"
 preserveAspectRatio="xMidYMid meet">
<metadata>
Created by potrace 1.16, written by Peter Selinger 2001-2019
</metadata>
<g transform="translate(0.000000,1024.000000) scale(0.100000,-0.100000)"
fill="#000000" stroke="none">
<path d="M3778 9624 l-3 -257 -175 -72 c-378 -154 -793 -388 -1103 -623 -235
-177 -489 -413 -670 -621 -605 -699 -970 -1572 -1028 -2460 -21 -314 14 -1014
57 -1163 5 -15 -2 -18 -40 -18 -67 0 -101 -40 -80 -94 3 -9 10 -14 14 -11 5 3
11 1 15 -5 8 -13 68 -13 82 1 7 7 14 -9 22 -53 7 -35 28 -134 47 -222 19 -87
33 -160 31 -162 -2 -2 -19 15 -37 37 -20 25 -54 51 -86 66 -30 13 -54 30 -54
37 0 22 -39 49 -71 49 -44 0 -80 -40 -86 -95 -6 -51 6 -80 42 -104 21 -14 30
-14 54 -4 26 11 33 9 75 -24 25 -19 92 -61 149 -92 173 -96 170 -94 185 -155
14 -63 42 -105 67 -101 12 2 3 -14 -28 -50 -114 -133 -169 -274 -170 -428 0
-55 7 -122 16 -160 9 -36 17 -106 17 -156 0 -146 42 -256 135 -353 30 -31 76
-69 103 -86 44 -26 51 -35 61 -77 37 -162 195 -317 391 -382 41 -13 140 -34
219 -46 79 -12 172 -33 206 -46 35 -12 100 -33 146 -46 114 -30 301 -30 484 2
72 12 137 23 145 24 13 1 15 -36 18 -270 2 -266 3 -271 25 -291 21 -20 318
-206 464 -292 l72 -43 107 11 c59 6 137 11 174 11 64 0 67 -1 105 -41 22 -22
63 -54 90 -71 28 -17 76 -48 107 -69 77 -50 169 -79 280 -89 65 -5 111 -15
153 -34 51 -22 72 -26 138 -24 l78 2 30 -52 c104 -183 330 -282 524 -231 114
30 248 138 294 238 18 38 29 50 40 46 9 -4 54 -9 101 -12 116 -7 207 14 344
80 121 58 182 104 202 153 10 23 23 33 56 43 92 27 189 82 257 146 52 49 83
70 132 87 50 18 69 31 87 60 29 44 11 40 387 68 243 19 287 24 331 44 62 29
121 87 134 135 5 20 10 109 10 198 l0 161 98 -5 c117 -7 231 13 372 64 53 19
142 41 200 49 198 29 339 92 444 198 68 69 114 146 131 221 10 44 17 54 66 87
152 104 229 257 229 458 1 52 7 124 15 160 38 174 -4 344 -128 516 -29 40 -62
79 -74 85 -23 13 -32 39 -13 39 6 0 22 -7 36 -17 23 -15 27 -15 41 -1 8 9 23
45 33 79 16 62 19 65 81 103 35 21 112 65 171 98 59 33 112 66 117 75 7 13 14
14 41 5 92 -33 141 93 68 174 -40 45 -98 35 -125 -20 -9 -19 -20 -33 -24 -31
-13 8 -103 -59 -124 -92 -11 -18 -24 -32 -28 -33 -10 0 -6 22 43 225 44 180
102 509 122 690 8 78 13 258 13 515 0 325 -3 417 -18 520 -100 704 -400 1419
-842 2008 -209 279 -507 586 -782 805 l-135 107 -109 0 c-60 0 -109 -2 -109
-5 0 -2 19 -14 43 -26 46 -24 67 -39 202 -144 116 -90 125 -98 272 -234 545
-502 952 -1127 1187 -1823 48 -142 88 -298 76 -298 -4 0 -74 30 -156 66 -82
36 -160 68 -173 70 -13 3 -32 9 -42 14 -10 6 -26 10 -37 10 -11 0 -25 7 -32
15 -9 11 -17 12 -33 4 -17 -10 -19 -9 -14 5 5 14 3 16 -12 11 -11 -3 -21 0
-24 8 -6 16 -45 29 -52 17 -2 -4 44 -54 103 -111 59 -57 129 -134 155 -171 26
-37 69 -83 95 -103 57 -42 59 -44 100 -89 24 -25 29 -36 18 -36 -9 0 -16 5
-16 10 0 6 -33 10 -79 10 -59 0 -80 -4 -84 -14 -3 -8 1 -20 9 -26 37 -31 -3
-80 -66 -80 -56 0 -63 9 -55 74 4 31 4 56 1 56 -3 0 -26 -9 -51 -21 -42 -20
-65 -19 -65 2 0 6 4 8 9 5 14 -9 22 23 11 43 -11 21 -77 81 -88 81 -5 0 -21
13 -38 28 -42 41 -130 102 -145 102 -7 0 -9 3 -6 7 4 3 -10 17 -31 29 -20 13
-33 24 -29 24 4 0 -5 12 -20 27 -16 15 -21 24 -11 20 9 -3 19 0 22 9 6 16 76
20 76 4 0 -5 18 -10 40 -10 29 0 40 4 40 15 0 8 -8 15 -17 16 -15 0 -15 2 2 9
11 5 15 9 9 9 -6 1 -17 13 -24 27 -15 26 -116 79 -175 91 -16 4 -34 10 -40 14
-5 5 -31 26 -56 47 -26 22 -63 49 -83 61 -20 13 -36 27 -36 32 0 5 -10 9 -23
9 -19 0 -25 -8 -33 -37 -8 -34 -12 -38 -46 -41 -20 -2 -62 4 -95 13 -32 9 -76
21 -97 27 -22 6 -77 33 -122 60 -45 26 -85 48 -88 48 -3 0 -6 -13 -6 -30 0
-21 12 -41 42 -72 23 -24 41 -46 40 -50 -1 -5 1 -7 6 -5 15 4 64 -42 56 -54
-4 -7 -1 -17 7 -23 22 -17 82 -96 77 -102 -8 -7 -68 17 -63 26 3 4 -1 7 -8 6
-6 0 -49 12 -94 27 l-83 29 0 38 c0 35 13 58 33 58 5 0 11 3 15 6 3 3 1 6 -5
6 -19 0 -42 65 -41 112 0 25 -3 51 -7 58 -4 7 -9 44 -11 84 -19 370 -24 535
-24 741 0 132 -4 246 -9 254 -13 19 -39 7 -43 -21 -2 -17 -25 -34 -93 -71
-213 -115 -310 -178 -520 -338 -38 -29 -43 -30 -105 -24 -36 4 -85 11 -110 16
-25 6 -85 12 -135 14 -131 5 -196 25 -367 113 -5 2 -8 -3 -8 -12 0 -9 18 -34
41 -55 86 -85 170 -114 359 -126 58 -3 129 -9 159 -13 l53 -7 -38 -31 -39 -31
-150 18 c-82 9 -174 25 -203 34 -30 9 -56 14 -59 12 -2 -3 11 -20 31 -39 50
-49 163 -108 219 -115 38 -5 45 -8 36 -19 -6 -8 -16 -11 -22 -7 -5 3 -7 1 -4
-4 7 -11 -122 -133 -139 -133 -5 0 -29 14 -54 31 -25 16 -73 43 -108 59 -34
16 -100 52 -146 80 -131 79 -168 61 -50 -24 29 -21 64 -50 76 -64 l23 -25 -40
23 c-67 40 -90 54 -95 61 -8 10 -48 29 -60 29 -24 0 -3 -21 74 -75 61 -42 74
-55 56 -55 -36 0 -15 -12 27 -16 21 -2 52 -6 70 -7 31 -4 123 -69 123 -87 0
-6 -12 -13 -26 -16 -15 -4 -35 -15 -45 -25 -11 -11 -30 -19 -43 -19 -14 0 -27
-4 -30 -9 -3 -5 -23 -12 -43 -16 -21 -4 -41 -12 -45 -18 -4 -7 -8 -42 -8 -78
0 -66 18 -128 46 -159 11 -14 10 -21 -6 -48 -12 -20 -25 -30 -32 -26 -6 4 -8
3 -5 -3 4 -6 -2 -22 -13 -36 -11 -14 -34 -55 -51 -91 -17 -36 -34 -64 -38 -61
-4 2 -7 -6 -6 -18 1 -12 0 -25 -2 -30 -7 -12 -46 13 -90 59 -33 35 -49 44 -75
43 -36 0 -122 -16 -99 -18 11 -1 12 -4 5 -11 -8 -8 -47 3 -130 36 -65 25 -121
49 -124 53 -3 3 -12 7 -20 8 -8 1 -31 7 -50 14 -19 6 -41 13 -47 15 -9 2 -13
24 -13 64 0 56 -3 64 -30 87 -17 13 -27 29 -24 34 3 5 0 8 -8 7 -9 -2 -14 12
-16 49 -2 28 -9 57 -17 63 -11 9 -11 18 -3 42 9 24 8 36 -6 59 -9 16 -20 48
-24 71 -6 32 -12 44 -28 46 -17 2 -22 -6 -33 -58 -7 -33 -17 -60 -21 -60 -12
0 -19 -39 -9 -46 5 -3 9 -16 9 -29 0 -17 5 -24 18 -23 45 3 61 -2 59 -22 -1
-13 -8 -20 -22 -20 -11 0 -31 -3 -44 -7 -21 -5 -23 -4 -18 17 3 13 2 19 -3 14
-5 -5 -12 -24 -15 -43 -3 -19 -8 -38 -11 -42 -2 -4 0 -10 5 -13 5 -4 12 3 16
14 4 12 19 22 41 26 19 3 36 5 38 3 1 -2 1 -23 -2 -46 -3 -28 -9 -43 -18 -43
-11 0 -14 -17 -14 -70 l0 -70 -52 -26 c-29 -15 -118 -55 -198 -89 -80 -35
-230 -102 -334 -149 -104 -48 -231 -103 -283 -123 -51 -20 -93 -40 -93 -45 0
-6 6 -8 13 -5 7 3 69 21 138 41 89 27 180 65 324 136 110 54 235 112 278 129
93 37 200 90 208 103 4 6 30 -1 64 -17 32 -14 131 -57 220 -95 152 -64 325
-146 325 -154 0 -1 -21 1 -47 5 -27 4 -57 8 -68 8 -17 1 -17 -1 -5 -9 8 -5 25
-10 38 -10 12 0 22 -5 22 -11 0 -6 9 -8 21 -4 15 5 19 4 15 -4 -5 -7 2 -11 18
-11 18 0 24 4 20 14 -4 9 30 -1 93 -29 54 -25 135 -55 180 -67 46 -13 83 -26
83 -30 0 -12 -20 -10 -76 6 -27 8 -177 42 -334 76 -157 34 -341 74 -410 91
-69 16 -138 29 -153 29 -30 0 -337 -71 -694 -160 -133 -33 -250 -60 -261 -60
-20 0 -52 29 -52 48 0 20 266 146 698 332 l192 83 0 58 c0 32 4 60 9 63 5 3
11 19 13 36 3 21 1 27 -6 20 -5 -5 -18 -10 -28 -10 -10 0 -18 -4 -18 -10 0 -5
-5 -10 -11 -10 -5 0 -7 5 -4 10 3 6 -3 10 -14 10 -18 0 -21 6 -21 40 l0 40
-40 0 c-34 0 -40 3 -40 21 0 16 -4 19 -17 13 -10 -4 -55 -7 -101 -5 -98 3
-165 -6 -155 -22 4 -7 0 -8 -13 -3 -10 4 -1 -8 21 -28 32 -28 38 -37 28 -47
-20 -21 -17 -24 51 -53 75 -32 101 -58 110 -108 4 -23 15 -42 28 -49 19 -10
14 -14 -49 -45 -143 -69 -245 -80 -349 -38 -61 24 -66 25 -96 9 -19 -9 -43
-13 -60 -10 -26 6 -68 -8 -68 -23 0 -4 10 -12 22 -17 12 -6 24 -16 26 -24 4
-11 -2 -13 -25 -8 -37 7 -53 -7 -53 -48 0 -25 -6 -35 -27 -45 -16 -8 -30 -14
-33 -15 -3 0 -30 -12 -60 -26 -92 -43 -116 -51 -151 -47 -31 3 -34 6 -34 35 0
17 -4 31 -10 30 -6 -1 -12 33 -16 78 -4 68 -2 83 13 101 22 25 23 52 3 74 -21
23 -33 140 -14 140 12 0 12 2 0 9 -9 6 -12 24 -10 60 2 28 0 51 -4 51 -5 0 -6
18 -2 41 4 22 8 230 8 462 l2 422 886 5 c919 5 919 5 919 44 0 18 -124 133
-365 341 -44 37 -116 101 -160 140 -44 40 -168 151 -275 246 l-195 174 485 5
c420 4 485 7 485 20 0 8 -68 64 -152 125 -83 60 -239 173 -345 251 -180 131
-301 217 -572 407 -63 45 -103 79 -95 82 35 12 167 35 299 52 204 25 648 25
850 0 477 -60 912 -195 1370 -428 196 -100 239 -116 207 -81 -25 28 -49 93
-43 117 5 20 -11 30 -177 110 -576 278 -1093 410 -1687 431 -256 10 -509 -12
-838 -72 l-143 -26 -192 138 c-106 75 -217 156 -247 179 -30 23 -61 45 -67 49
-10 5 -13 -50 -15 -250z m-5 -1121 c4 -401 5 -741 3 -758 -1 -16 -4 -150 -4
-297 -1 -171 -6 -268 -12 -268 -5 0 -10 20 -10 44 0 26 -6 51 -15 60 -17 17
-22 156 -5 156 6 0 10 9 10 20 0 11 -4 20 -10 20 -5 0 -10 5 -10 11 0 5 4 8 9
5 19 -12 19 38 -1 92 -11 31 -21 62 -22 67 -2 6 -6 22 -10 37 -6 19 -3 34 8
50 9 12 16 34 16 47 0 24 -35 71 -53 71 -5 0 1 -9 14 -21 l24 -21 -32 21 c-39
26 -37 26 -79 -5 -25 -19 -34 -34 -34 -55 0 -20 5 -29 16 -29 14 0 16 -8 11
-50 -7 -60 -1 -80 24 -80 34 0 23 -37 -13 -45 l-33 -8 35 -7 c22 -5 27 -8 13
-9 -24 -1 -83 -32 -83 -44 0 -4 10 -5 23 -2 12 2 38 1 57 -4 30 -8 31 -9 10
-11 -14 -1 -41 -7 -60 -14 -33 -12 -33 -13 -10 -19 24 -6 24 -7 5 -22 -16 -14
-17 -16 -3 -11 13 4 20 -3 27 -27 8 -30 9 -30 11 -7 2 20 4 19 9 -10 7 -37 3
-70 -8 -68 -14 3 -58 -25 -58 -37 0 -17 48 -35 91 -35 39 0 76 -10 76 -20 0
-5 -17 -6 -39 -4 -61 6 -126 -9 -123 -28 2 -11 -8 -18 -33 -22 -49 -10 -49
-42 0 -52 25 -4 35 -11 35 -25 0 -11 5 -19 10 -19 6 0 11 -15 11 -32 l2 -33 7
35 7 35 2 -42 c1 -58 19 -54 24 5 3 46 3 46 5 -10 2 -49 -1 -58 -15 -59 -15 0
-15 -2 2 -8 11 -5 23 -7 27 -5 3 2 1 -7 -5 -20 -7 -13 -15 -22 -19 -20 -5 3
-8 -2 -8 -11 0 -9 4 -14 9 -11 5 3 12 -1 15 -9 3 -8 9 -15 13 -14 4 1 31 0 58
-1 28 -2 39 -4 25 -7 -95 -14 -90 -11 -92 -51 l-1 -37 -5 40 -6 40 -6 -40 -7
-40 -2 38 c-1 26 -6 37 -16 37 -8 0 -15 -6 -15 -12 0 -9 -3 -9 -9 1 -5 8 -16
11 -26 8 -15 -6 -15 -9 2 -31 10 -13 21 -22 26 -19 4 2 7 -1 7 -6 0 -7 -22
-11 -52 -11 -34 0 -48 3 -39 9 8 5 9 11 3 15 -6 3 -13 -3 -17 -14 -3 -11 -12
-20 -20 -20 -15 0 -26 -23 -17 -37 4 -5 30 -9 57 -9 55 1 52 6 54 -82 1 -46 3
-52 15 -39 8 8 16 32 19 53 3 37 4 37 7 -11 2 -27 4 -54 5 -60 2 -5 4 -17 5
-25 1 -8 6 -4 10 10 7 21 8 19 9 -17 1 -28 -3 -43 -11 -43 -9 0 -8 -4 2 -10
13 -8 13 -10 -1 -10 -9 0 -22 7 -29 15 -14 17 -40 20 -40 5 0 -5 7 -10 16 -10
8 0 22 -7 31 -15 8 -9 23 -13 33 -10 9 3 28 1 41 -4 l24 -9 -27 -7 c-19 -5
-28 -15 -31 -33 -4 -24 -4 -23 -6 6 -1 40 -21 43 -21 2 0 -38 -20 -40 -21 -2
-2 24 -2 23 -9 -8 l-7 -35 -2 34 c-1 36 -15 33 -24 -4 -4 -18 -5 -18 -6 3 -1
30 -21 28 -21 -3 0 -21 -5 -25 -31 -25 -16 0 -28 -4 -25 -9 3 -5 -6 -11 -19
-14 -14 -2 -28 0 -31 5 -3 4 -11 5 -17 1 -7 -4 -22 -6 -34 -4 -29 3 -32 -29
-3 -36 11 -3 20 -9 20 -14 0 -5 27 -9 59 -9 68 0 91 -6 91 -26 0 -8 5 -14 10
-14 6 0 11 -21 12 -47 1 -41 2 -38 8 22 l6 70 2 -67 c2 -78 22 -94 22 -18 0
28 4 50 9 50 6 0 11 -54 13 -120 l3 -120 -45 -1 c-25 -1 11 -8 80 -15 155 -17
181 -24 70 -19 -47 2 -76 2 -65 -1 34 -10 41 -24 12 -24 -25 0 -27 -3 -27 -40
0 -22 -5 -40 -10 -40 -6 0 -8 11 -4 25 3 14 3 33 -1 42 -7 15 -9 13 -15 -12
l-8 -30 -1 28 c-2 44 -21 31 -21 -14 l0 -42 -112 5 c-62 2 -104 2 -93 0 41 -8
34 -18 -15 -21 l-50 -2 -2 43 c-1 24 -2 52 -2 63 -1 19 -5 20 -71 13 -38 -4
-99 -11 -135 -17 -66 -10 -85 -7 -75 10 4 5 -1 9 -11 9 -9 0 -25 9 -35 21 -9
11 -21 20 -26 20 -4 0 -7 7 -5 15 3 12 -22 20 -50 15 -10 -1 -10 7 1 47 7 23
6 32 -2 33 -7 0 -8 2 -2 5 6 2 8 25 6 52 l-5 47 -7 -40 -6 -40 -2 51 c-1 37
-5 54 -17 58 -9 4 -14 13 -10 22 4 10 2 13 -6 8 -8 -5 -9 -2 -5 10 5 11 3 15
-5 10 -8 -5 -9 -2 -5 9 4 10 2 16 -5 14 -6 -1 -16 15 -21 36 -5 20 -13 37 -18
37 -15 0 -10 29 7 38 15 8 15 13 4 39 -12 27 -61 58 -84 54 -5 -1 -6 7 -3 18
3 11 -1 22 -9 25 -7 3 -25 29 -40 58 l-27 53 -13 -50 c-14 -54 -9 -65 34 -65
12 0 22 -5 22 -11 0 -6 -6 -9 -13 -6 -21 8 -39 -8 -40 -37 -2 -24 -6 -26 -47
-27 -25 -1 -37 -3 -27 -6 30 -8 18 -23 -19 -23 -31 0 -36 3 -31 20 5 21 -7 28
-18 10 -11 -18 6 -50 26 -50 11 0 30 -6 42 -14 12 -8 48 -17 80 -21 73 -8 65
-18 -21 -26 l-67 -6 61 -1 c41 -1 66 -7 74 -17 11 -13 8 -15 -19 -15 -29 0
-31 -2 -20 -21 6 -12 9 -30 6 -40 -5 -19 1 -23 63 -32 14 -3 -24 -6 -85 -7
l-110 -3 65 -9 c118 -16 134 -26 48 -27 -42 -1 -80 -5 -83 -11 -4 -6 5 -10 19
-10 21 0 26 -5 26 -25 0 -20 -5 -25 -27 -26 -16 -1 18 -7 74 -15 167 -21 161
-33 -17 -34 -85 -1 -174 -5 -198 -9 l-43 -9 5 82 c3 44 3 74 0 66 -3 -8 -12
-34 -20 -57 -10 -27 -22 -43 -32 -43 -22 -1 -50 -40 -57 -80 -4 -24 -2 -30 7
-25 7 4 1 -4 -13 -17 -52 -46 -67 -56 -74 -50 -4 4 -5 0 -3 -8 2 -8 -4 -14
-12 -15 -8 0 -15 -4 -15 -10 -1 -19 -58 -95 -71 -95 -7 0 -11 -6 -8 -14 7 -19
-13 -56 -31 -56 -8 0 -15 5 -15 10 0 18 -19 11 -42 -15 -11 -13 -26 -21 -31
-18 -6 4 -8 0 -4 -10 5 -12 1 -17 -13 -17 -11 0 -20 -5 -20 -11 0 -5 5 -7 12
-3 7 4 8 3 4 -4 -4 -6 -13 -9 -21 -6 -8 4 -13 10 -10 14 2 4 -14 11 -38 14
-25 4 -43 3 -45 -3 -2 -6 -13 -6 -30 2 -35 15 -43 27 -31 48 21 40 11 65 -35
90 l-44 23 34 40 c47 55 42 77 -21 97 -30 9 -44 18 -37 23 7 4 12 15 12 25 0
10 7 24 15 31 23 19 19 77 -5 90 -21 11 -20 40 2 87 8 17 6 29 -10 57 -18 30
-19 39 -9 65 8 23 8 39 -1 64 -9 25 -9 48 -2 87 5 29 10 82 10 119 0 36 3 76
6 89 6 22 7 22 26 5 17 -15 21 -15 29 -3 5 8 7 27 5 43 -5 24 -2 27 20 27 20
0 25 4 20 17 -4 9 -1 20 6 25 9 5 6 8 -9 8 -15 0 -23 6 -23 18 0 9 -7 26 -16
37 -12 17 -16 18 -24 5 -7 -12 -17 -6 -50 30 l-40 44 -30 -29 c-17 -16 -30
-34 -30 -41 0 -17 -30 -26 -46 -14 -9 9 -15 6 -23 -9 -15 -27 -14 -31 10 -31
l20 0 -20 -26 c-25 -32 -26 -44 -6 -44 18 0 18 -4 6 -48 -8 -25 -7 -32 4 -32
8 0 17 5 20 10 3 6 11 10 16 10 11 0 6 -269 -6 -333 -6 -29 -3 -42 10 -57 16
-18 16 -20 -4 -46 -23 -29 -26 -55 -11 -85 8 -15 6 -24 -9 -40 -16 -17 -19
-33 -17 -76 1 -29 8 -59 14 -65 20 -20 15 -47 -8 -41 -25 7 -50 -13 -50 -39 0
-11 14 -36 30 -55 36 -41 38 -53 7 -53 -42 0 -71 -49 -58 -96 5 -21 0 -43 -22
-89 -16 -33 -31 -62 -33 -64 -2 -2 -16 8 -30 22 -29 29 -54 35 -54 13 0 -7
-10 -24 -23 -38 -13 -14 -21 -30 -19 -36 2 -6 -11 -21 -27 -33 -17 -13 -31
-31 -31 -41 0 -18 -1 -18 -22 2 -23 21 -72 27 -83 10 -3 -5 -12 -7 -20 -3 -24
9 -87 -7 -82 -20 2 -7 -4 -23 -14 -36 -11 -13 -19 -30 -19 -37 0 -8 -4 -14 -9
-14 -5 0 -12 -8 -15 -17 -14 -46 7 368 25 492 69 479 199 869 438 1315 84 157
263 428 384 582 412 527 926 939 1563 1253 133 66 419 194 435 195 3 0 9 -327
12 -727z m577 642 l12 -35 30 25 c37 31 48 25 41 -20 l-6 -36 31 18 c39 22 52
10 30 -28 l-17 -29 34 0 c41 0 43 -6 14 -37 l-22 -22 24 -9 c13 -5 33 -12 44
-14 17 -4 15 -7 -16 -27 -28 -16 -36 -27 -32 -41 3 -11 11 -20 18 -20 27 0 97
63 126 115 45 81 53 80 47 -6 -9 -130 -72 -225 -186 -281 -65 -32 -70 -33
-192 -33 -122 0 -128 1 -192 33 -92 45 -152 113 -179 202 -11 38 -19 87 -17
111 l3 44 19 -35 c48 -91 138 -169 157 -138 13 20 11 24 -16 36 -29 14 -33 42
-6 42 32 0 44 24 21 45 -29 26 -25 35 15 35 l35 0 -17 35 c-9 19 -14 37 -11
40 3 3 22 -4 42 -16 l36 -21 0 41 c0 23 2 41 5 41 2 0 16 -12 31 -27 l27 -27
19 37 c10 20 23 37 27 37 5 0 15 -16 21 -35z m10 -742 c0 -21 10 -15 64 35
l51 47 3 -68 c3 -65 4 -68 25 -61 12 3 37 15 56 25 18 11 35 18 37 16 2 -2 -2
-21 -9 -43 -8 -21 -17 -51 -21 -66 l-6 -27 67 6 67 6 -33 -41 c-18 -23 -37
-44 -42 -47 -19 -12 -7 -26 46 -52 30 -15 55 -30 55 -34 0 -4 -24 -15 -52 -25
-29 -9 -55 -18 -57 -20 -2 -2 12 -22 31 -46 59 -73 60 -72 -16 -64 -76 8 -74
11 -40 -73 21 -51 18 -53 -42 -26 -31 14 -58 25 -60 25 -2 0 -4 -30 -6 -67
l-3 -68 -51 48 -51 47 -23 -60 c-12 -33 -26 -63 -30 -65 -4 -3 -20 25 -36 61
l-27 65 -54 -53 -53 -52 0 72 c0 40 -2 72 -5 72 -3 0 -28 -12 -56 -26 -28 -14
-53 -23 -56 -21 -2 3 3 29 11 58 9 29 16 56 16 60 0 5 -29 9 -65 11 l-65 3 45
52 46 52 -43 12 c-84 22 -87 28 -28 60 30 16 55 31 58 33 2 3 -12 26 -32 52
-20 26 -36 50 -36 54 0 7 56 4 103 -5 21 -4 21 10 2 65 -24 69 -21 74 35 45
27 -14 54 -25 59 -25 6 0 11 30 13 68 l3 67 51 -48 51 -47 28 62 28 63 24 -50
c12 -27 23 -56 23 -62z m3024 -978 c-18 -85 -71 -139 -191 -195 -52 -24 -54
-31 -7 -25 32 4 35 3 28 -18 -5 -17 -4 -19 6 -10 14 13 43 6 34 -9 -4 -6 2 -7
17 -3 l24 7 -25 -27 c-35 -38 -85 -61 -192 -90 -122 -33 -197 -33 -234 -2 -22
19 -26 29 -20 51 l7 27 30 -25 c46 -39 118 -31 148 16 11 18 11 20 -3 15 -21
-8 -21 16 -1 33 19 16 19 30 0 30 -23 0 -29 27 -11 46 13 13 14 19 5 31 -16
19 14 54 32 36 18 -18 39 -3 39 28 0 39 37 60 48 28 8 -21 9 -21 31 9 12 18
28 29 35 26 8 -3 17 -1 21 5 13 22 27 11 21 -16 -6 -26 -5 -26 8 -10 8 10 16
15 18 10 7 -12 3 -57 -6 -71 -5 -8 1 -12 21 -11 15 0 22 3 16 6 -19 7 -15 23
5 23 32 0 82 75 82 122 0 19 2 20 10 8 6 -8 7 -28 4 -45z m116 -447 c-5 -23
-15 -47 -24 -54 -17 -12 -22 -49 -7 -58 5 -4 12 0 14 6 3 7 6 2 6 -12 1 -20 3
-22 11 -10 7 10 10 -34 10 -132 0 -92 -4 -148 -10 -148 -5 0 -10 5 -10 11 0 5
-4 8 -9 5 -5 -4 -48 8 -95 24 -84 30 -186 39 -186 17 0 -10 -30 -6 -64 8 -14
6 -17 5 -12 -3 4 -7 2 -12 -3 -12 -6 0 -11 18 -11 41 0 28 -4 39 -12 37 -13
-5 -15 -22 -6 -48 3 -8 10 -40 16 -70 6 -30 14 -66 17 -80 5 -16 4 -21 -2 -12
-7 10 -14 8 -29 -9 -19 -21 -19 -21 7 -18 22 3 35 -6 75 -56 27 -33 52 -61 56
-63 7 -3 1 -12 -29 -46 -7 -8 -9 -16 -6 -20 4 -3 -5 -6 -19 -6 -14 0 -93 -11
-175 -25 -81 -14 -153 -25 -159 -25 -12 0 -44 59 -44 82 0 7 28 29 62 48 87
49 165 127 173 174 4 20 11 39 16 42 12 7 12 54 0 54 -5 0 -11 -5 -13 -11 -2
-6 -36 -13 -76 -16 -56 -4 -78 -1 -97 11 -18 12 -25 12 -28 3 -3 -6 -6 -2 -6
10 -1 19 -4 20 -30 10 -31 -11 -41 -31 -41 -83 l0 -31 -71 -5 c-45 -4 -75 -11
-80 -19 -7 -11 -9 -9 -9 7 0 22 22 48 33 38 3 -3 13 6 23 21 10 15 23 24 31
21 8 -3 12 -2 9 3 -7 11 30 44 42 37 5 -3 12 4 15 15 4 14 11 20 20 16 9 -3
14 1 13 11 0 9 5 17 12 17 7 0 17 7 22 15 8 12 10 12 10 1 0 -8 13 4 29 26 16
22 45 47 65 57 20 9 36 21 36 26 0 6 9 10 21 10 11 0 18 4 14 9 -6 10 34 37
48 33 4 -1 7 2 7 6 0 15 99 74 111 66 8 -4 9 -3 5 4 -4 7 -1 12 9 12 10 0 13
-5 9 -12 -4 -7 -3 -8 4 -4 7 4 12 14 12 22 0 13 4 16 33 18 6 1 14 4 18 8 3 5
27 13 55 19 27 5 65 14 84 18 19 5 54 9 76 10 l41 1 -7 -42z m-984 -113 c-7
-18 5 -20 22 -3 21 21 14 -14 -8 -42 -25 -32 -25 -39 0 -33 29 8 25 -16 -10
-63 -39 -51 -39 -68 0 -62 17 3 30 1 30 -3 0 -10 -27 -37 -57 -57 -21 -13 -24
-21 -19 -50 4 -30 3 -34 -14 -29 -15 4 -20 0 -20 -15 0 -15 -5 -18 -20 -13
-17 5 -20 2 -20 -24 0 -31 -14 -42 -23 -18 -4 7 -8 4 -12 -9 -4 -13 -21 -25
-43 -32 -30 -10 -42 -9 -71 6 -66 32 -168 239 -159 319 3 25 8 29 48 35 54 8
123 32 169 59 41 24 51 19 16 -9 -31 -25 -120 -59 -173 -68 l-39 -6 8 -49 c4
-28 11 -60 14 -72 12 -40 55 -94 90 -113 33 -17 35 -17 54 1 28 24 28 49 1 40
-20 -6 -20 -5 -6 28 9 23 11 38 4 45 -7 7 -4 12 10 16 14 5 18 13 14 31 -3 20
-1 24 15 21 15 -3 22 5 32 40 7 24 17 41 22 38 5 -3 17 12 26 33 15 35 17 36
22 14 6 -22 7 -21 25 15 15 30 20 35 24 21 4 -18 5 -17 18 2 17 24 39 28 30 6z
m-1156 -484 c358 -140 767 -310 806 -336 15 -10 22 -21 17 -26 -13 -13 -331
109 -708 273 -88 39 -188 82 -222 96 -35 14 -63 29 -63 34 0 18 51 6 170 -41z
m2706 0 c-10 -15 25 -22 42 -9 15 13 22 7 24 -19 1 -5 6 -12 13 -18 7 -5 47
-57 90 -114 74 -99 158 -191 173 -191 4 0 8 -8 9 -19 3 -36 -34 -10 -95 67
-33 43 -77 93 -97 112 l-36 35 11 -29 c15 -40 7 -42 -28 -8 -17 17 -28 33 -24
36 12 12 11 40 -3 59 -12 17 -14 4 -15 -104 -2 -202 5 -183 -65 -191 -114 -13
-300 -39 -390 -53 -111 -18 -205 -24 -205 -14 0 4 -2 14 -5 22 -4 10 75 73
257 204 254 183 339 243 346 243 2 0 1 -4 -2 -9z m934 -159 c109 -55 157 -86
192 -123 30 -31 45 -54 42 -64 -4 -8 -9 -15 -11 -15 -3 0 -38 25 -78 55 -70
54 -98 65 -110 45 -13 -21 -45 -9 -72 27 -15 20 -44 54 -63 74 -86 90 -86 91
-65 83 11 -4 85 -41 165 -82z m-1862 -162 c-2 -89 1 -140 7 -140 7 0 7 -3 0
-8 -6 -4 -11 -77 -13 -172 -2 -91 -5 -176 -8 -190 -3 -14 -5 -59 -4 -101 0
-59 -3 -78 -15 -82 -8 -4 -92 -18 -187 -32 -95 -15 -220 -35 -278 -45 l-105
-19 85 6 c124 8 162 11 195 17 39 7 207 30 220 31 6 0 12 3 15 7 4 4 20 11 38
14 31 6 32 5 32 -25 0 -17 -3 -31 -8 -31 -4 0 -13 -9 -20 -21 -12 -19 -11 -20
8 -14 20 6 21 4 19 -79 -1 -50 -6 -83 -11 -80 -5 3 -7 12 -4 19 3 8 -2 19 -10
25 -8 7 -14 9 -14 4 0 -5 -5 -2 -10 6 -7 12 -10 8 -11 -15 0 -16 -4 -39 -8
-49 -7 -19 -8 -19 -14 -1 -7 16 -9 16 -26 -4 -16 -19 -20 -19 -25 -5 -3 8 -6
31 -6 50 0 27 -4 34 -19 34 -16 0 -21 -10 -26 -53 -6 -47 -10 -55 -35 -64 -29
-11 -29 -11 -35 36 -7 49 -23 91 -36 91 -5 0 -11 -10 -13 -22 -17 -92 -26
-165 -26 -222 0 -42 -4 -66 -11 -66 -6 0 -9 -9 -6 -20 3 -11 1 -20 -3 -20 -5
0 -12 29 -15 65 -8 71 -24 91 -18 23 2 -24 5 -51 7 -60 2 -10 -2 -18 -9 -18
-8 0 -11 -8 -8 -20 4 -14 0 -20 -11 -20 -9 0 -16 -4 -16 -9 0 -5 44 10 98 34
53 24 187 82 297 128 424 181 515 223 515 236 0 12 -63 67 -127 110 -73 48
-80 57 -51 64 23 7 118 -51 180 -111 34 -33 36 -36 20 -49 -15 -13 -15 -13 4
-4 19 9 308 45 436 54 33 3 67 -1 80 -8 13 -6 30 -9 37 -7 9 3 11 0 6 -8 -5
-7 -20 -10 -40 -7 -18 3 -71 -1 -119 -8 -90 -13 -129 -35 -158 -89 -10 -18 -8
-17 17 2 33 26 45 28 45 7 0 -14 4 -13 33 1 17 10 44 26 59 37 15 11 30 18 33
15 4 -3 -8 -16 -24 -28 -17 -12 -31 -26 -31 -31 0 -21 45 -6 77 26 19 19 36
35 38 35 10 0 16 -114 10 -190 -6 -70 -11 -90 -24 -94 -9 -3 -88 -12 -176 -21
-237 -22 -630 -64 -710 -75 -253 -36 -488 -59 -506 -49 -29 15 -24 -9 8 -43
32 -33 59 -36 66 -7 7 25 27 17 22 -9 -2 -9 -4 -29 -4 -44 -1 -34 -25 -31 -78
9 -78 59 -86 70 -80 107 6 35 5 35 -44 45 -28 6 -58 11 -69 11 -14 0 -20 9
-23 38 -2 20 -4 -27 -5 -105 -1 -88 -6 -143 -12 -143 -6 0 -10 90 -10 250 0
200 -3 248 -13 244 -25 -9 -1037 406 -1037 426 0 19 23 20 78 5 85 -25 403
-154 702 -285 l265 -116 5 100 5 100 33 8 c38 10 36 -5 32 266 -2 130 1 192 8
192 6 0 14 -9 17 -20 6 -17 23 -25 48 -21 4 0 7 -6 7 -15 0 -13 6 -11 26 10
32 31 90 37 97 9 3 -14 6 -12 16 10 11 27 14 29 66 25 30 -1 56 0 58 4 1 4 35
12 74 18 40 5 78 11 85 12 18 4 44 30 51 51 6 16 3 18 -21 13 -15 -3 -128 -21
-252 -41 -124 -19 -237 -37 -252 -40 -30 -5 -36 3 -16 23 14 14 29 117 28 194
-1 64 12 78 73 78 39 0 47 -11 47 -71 0 -32 -4 -39 -22 -43 -13 -3 -32 -7 -43
-9 -11 -3 -5 -5 14 -6 41 -1 60 -24 61 -70 0 -33 0 -33 38 -27 81 15 82 17 82
177 l0 98 33 6 c50 10 209 32 235 34 l23 1 -3 -140z m-4406 -9 c37 -19 45 -27
37 -38 -6 -7 -17 -13 -23 -13 -14 0 -55 -44 -59 -62 -1 -7 14 -15 33 -19 l35
-6 -36 -2 c-20 0 -42 -8 -49 -16 -9 -11 -35 -15 -99 -16 -79 -2 -82 -2 -36 -9
28 -5 71 -9 98 -9 68 -1 58 -21 -10 -21 -41 0 -54 -3 -43 -10 8 -5 45 -10 81
-10 52 0 66 -3 66 -15 0 -8 -4 -15 -9 -15 -4 0 -8 5 -8 10 0 6 -5 10 -10 10
-6 0 -9 -5 -8 -12 2 -6 -19 -17 -47 -23 l-50 -13 53 -1 c39 -1 52 -5 52 -16 0
-8 -5 -15 -11 -15 -8 0 -8 -4 1 -15 6 -8 9 -18 6 -23 -3 -5 -6 -42 -7 -82 -2
-61 -5 -73 -20 -77 -24 -7 -14 -23 12 -23 11 0 17 -4 14 -10 -3 -5 -36 -10
-73 -11 -37 0 -85 -4 -107 -9 -30 -6 -18 -8 50 -5 50 2 80 2 67 -1 -12 -3 -20
-10 -17 -15 4 -5 17 -6 30 -3 13 3 33 0 45 -6 19 -10 21 -17 15 -48 -4 -21 -9
-39 -11 -42 -3 -2 -26 -7 -52 -11 -43 -6 -41 -6 26 -8 50 -1 72 -5 72 -13 0
-10 -42 -14 -167 -16 -92 -2 -170 -5 -172 -8 -2 -2 62 -4 142 -4 142 0 147 -1
147 -21 0 -34 -20 -162 -30 -189 -5 -14 -11 -37 -13 -53 -3 -31 -42 -66 -50
-44 -3 9 -9 7 -24 -6 -11 -9 -23 -14 -27 -10 -11 11 -36 12 -36 2 0 -6 -4 -8
-9 -4 -5 3 -13 0 -16 -5 -5 -8 -13 -6 -26 6 -18 16 -19 16 -26 -2 -11 -26 -41
-26 -49 -1 l-7 22 -8 -23 c-10 -28 -45 -29 -54 -2 -3 11 -15 20 -25 20 -9 0
-20 -9 -23 -20 -3 -11 -10 -20 -17 -20 -7 0 -14 9 -17 20 -3 11 -9 20 -14 20
-5 0 -9 26 -9 58 0 39 -3 52 -10 42 -6 -10 -10 9 -13 60 -2 49 -4 30 -5 -56
-1 -72 -5 -134 -8 -137 -4 -3 -15 -2 -25 4 -17 9 -19 24 -19 170 0 147 -1 160
-17 157 -16 -3 -18 -21 -21 -183 -1 -99 -7 -184 -12 -189 -7 -7 -10 -3 -10 11
0 12 -4 25 -10 28 -6 4 -10 70 -10 166 0 127 -3 159 -14 159 -17 0 -26 -71
-26 -212 0 -74 -4 -108 -11 -108 -15 0 -6 413 9 450 9 21 11 14 11 -42 1 -38
3 -68 5 -68 24 0 31 15 30 63 -2 53 8 77 32 77 10 0 14 -16 14 -61 0 -44 3
-59 13 -56 8 3 12 24 11 63 -1 35 3 62 10 66 16 11 -31 9 -83 -3 -48 -11 -60
-7 -43 14 6 7 16 58 22 111 6 54 16 110 22 125 6 14 12 33 14 42 8 39 85 158
135 209 54 54 126 110 159 123 8 3 85 5 170 4 142 -2 159 -4 202 -26z m-1084
-56 c17 -4 32 -11 32 -16 0 -11 -7 -11 -48 0 -38 11 -45 -9 -11 -33 l21 -14
-20 -11 c-12 -6 -30 -11 -41 -11 -12 0 -20 -5 -18 -12 5 -24 -30 -18 -43 7 -8
15 -27 33 -42 41 -28 14 -37 38 -18 49 5 3 29 6 54 7 29 0 47 6 50 15 5 12 9
12 28 -1 13 -8 38 -17 56 -21z m6457 -162 l7 -93 -33 0 c-34 0 -211 -27 -213
-32 -1 -2 -17 -21 -36 -42 -32 -36 -26 -41 11 -10 21 19 149 64 149 54 0 -5
-4 -12 -10 -15 -5 -3 -15 -16 -21 -28 -11 -21 -11 -21 7 -6 10 10 36 26 57 38
37 21 37 21 57 1 19 -19 20 -19 30 0 5 10 10 74 10 141 0 67 2 120 5 117 3 -3
8 -74 10 -159 l5 -153 77 -78 c42 -43 74 -80 71 -84 -11 -10 -42 13 -98 73
l-55 58 -5 -85 -5 -85 -180 -17 c-99 -9 -238 -24 -310 -32 -157 -18 -385 -29
-385 -19 1 13 303 175 521 279 36 18 45 27 47 52 5 44 -11 66 -77 111 -32 22
-66 52 -75 66 -18 27 -18 27 6 19 41 -13 93 -50 151 -110 31 -32 59 -55 62
-52 3 3 -12 45 -35 93 -22 49 -39 90 -37 92 14 13 40 -19 72 -89 30 -66 40
-79 56 -75 10 3 19 1 19 -4 0 -5 7 -9 15 -9 20 0 19 15 -10 100 -30 87 -30 92
-8 88 12 -2 28 -31 48 -88 23 -66 35 -86 51 -88 19 -3 20 1 16 83 -4 91 4 137
18 100 4 -11 11 -62 15 -112z m-2955 13 c0 -28 4 -26 -165 -51 -60 -9 -147
-23 -192 -31 -66 -12 -85 -13 -96 -3 -11 11 -1 17 52 36 36 13 89 26 116 29
28 3 77 10 110 15 33 6 73 13 89 15 16 2 31 6 34 9 3 3 16 5 29 5 18 0 23 -6
23 -24z m-3466 -21 c17 -13 18 -18 6 -40 -14 -25 -14 -26 -129 -23 -113 3
-116 4 -119 26 -7 44 12 52 122 52 73 -1 106 -5 120 -15z m1886 -255 c29 0 30
1 30 49 0 44 -2 49 -20 46 -11 -2 -22 0 -25 6 -4 5 1 9 9 9 12 0 16 12 18 53
l1 52 7 -55 7 -55 1 51 c1 27 9 59 17 70 17 23 18 19 6 -23 -6 -20 -6 -33 0
-35 7 -2 7 -13 0 -31 -6 -15 -7 -27 -3 -27 9 0 6 -115 -3 -130 -4 -7 -12 -7
-26 0 -18 10 -19 7 -19 -74 0 -72 -3 -85 -17 -89 -10 -3 43 -6 117 -8 125 -3
128 -3 39 -6 l-96 -4 1 -42 1 -42 -93 -1 c-51 0 -95 -4 -99 -7 -3 -4 -30 -7
-60 -7 -29 0 -53 -4 -53 -9 0 -7 -51 -31 -66 -31 -2 0 -4 29 -4 66 0 63 1 65
29 75 26 9 29 15 35 77 3 37 6 131 6 208 0 165 -9 154 123 154 l77 0 0 -120
c0 -80 4 -120 11 -120 7 0 10 20 9 53 -2 28 -1 86 1 127 2 56 4 43 6 -52 l4
-128 29 0z m2770 240 c0 -5 10 -20 23 -32 12 -13 27 -32 32 -43 6 -11 20 -21
31 -23 18 -3 20 -9 17 -60 -2 -31 -5 -67 -7 -79 -2 -13 0 -23 4 -23 5 0 8 -20
8 -45 -1 -24 -4 -42 -9 -40 -4 3 -10 -32 -14 -76 -8 -91 -24 -90 -26 1 -1 44
-3 50 -10 30 -8 -24 -8 -24 -7 5 0 47 -2 51 -16 32 -9 -12 -16 -14 -21 -8 -3
6 -2 11 3 11 13 0 25 66 17 91 -5 15 -13 19 -27 16 -26 -7 -71 21 -64 40 3 7
-12 31 -35 53 -43 41 -44 60 -3 60 18 0 27 8 35 28 17 45 69 92 69 62z m-4827
-129 c-4 -15 149 -132 165 -126 6 2 12 -2 12 -9 0 -7 -6 -18 -12 -23 -18 -14
-50 -24 -44 -15 4 7 -74 52 -89 52 -16 0 0 -22 25 -35 16 -8 40 -26 54 -40 14
-14 29 -25 33 -25 9 0 33 -48 33 -67 0 -7 -5 -13 -11 -13 -5 0 -7 5 -4 10 3 6
2 10 -4 10 -5 0 -13 -4 -16 -10 -3 -5 -33 -10 -65 -10 -33 0 -82 -5 -110 -11
-66 -14 -77 -5 -60 48 7 21 19 46 28 56 14 15 13 19 -1 35 -25 28 -21 67 10
91 l26 21 -21 23 c-26 28 -27 35 -5 59 14 16 19 17 37 4 12 -8 20 -19 19 -25z
m3641 -80 c3 -4 27 -14 53 -21 27 -8 68 -24 93 -36 25 -12 110 -45 189 -73
168 -60 165 -59 151 -76 -17 -21 -1 -38 29 -32 14 3 53 0 86 -7 77 -16 257
-95 248 -109 -4 -6 0 -8 11 -4 11 4 28 -1 43 -13 18 -14 21 -20 10 -20 -20 0
-32 -19 -21 -30 5 -5 71 -19 146 -31 146 -23 250 -59 214 -74 -12 -5 -105 8
-240 33 -122 23 -270 49 -331 58 -60 9 -111 20 -113 25 -2 5 -14 6 -27 3 -13
-3 -47 -1 -77 5 -69 14 -99 18 -181 26 -37 4 -70 11 -72 16 -3 4 9 6 27 3 91
-12 231 -26 298 -30 41 -3 111 -9 155 -14 85 -10 135 -7 173 12 30 16 28 30
-4 18 -33 -13 -94 -13 -94 0 0 6 15 10 33 10 21 0 27 3 19 9 -7 4 -31 6 -53 4
-22 -2 -46 0 -52 5 -7 5 -68 12 -137 16 -109 5 -171 15 -230 38 -8 4 -46 9
-85 12 -38 4 -79 8 -90 10 -11 3 -45 5 -75 6 -30 1 -46 4 -35 7 34 8 41 23 11
23 -20 0 -29 6 -33 20 -7 27 -27 20 -31 -11 -2 -13 -7 -27 -11 -32 -4 -4 -6
-21 -3 -37 4 -31 8 -33 105 -46 26 -3 46 -8 43 -11 -2 -3 -38 0 -78 7 -68 10
-95 8 -306 -25 -128 -19 -371 -60 -542 -90 -171 -30 -341 -57 -378 -60 -64 -5
-70 -4 -92 20 -15 16 -20 29 -14 34 16 16 630 293 846 382 88 36 107 47 102
62 -4 13 0 17 19 17 14 0 27 -6 30 -14 6 -15 15 -14 142 8 99 17 122 18 129 7z
m3287 -162 c112 -11 220 -24 239 -28 19 -4 62 -9 95 -10 52 -2 136 -30 94 -31
-58 -1 -592 63 -659 79 l-35 9 31 1 c17 1 122 -8 235 -20z m-7232 -75 c26 -33
27 -64 1 -97 -26 -33 -63 -41 -100 -22 -54 28 -65 76 -25 119 34 37 95 37 124
0z m8011 -4 c12 -8 11 -12 -8 -30 -26 -25 -27 -28 -5 -52 21 -24 13 -32 -14
-13 -18 13 -20 20 -13 44 10 36 6 41 -34 41 -38 0 -76 -25 -76 -49 0 -24 35
-55 55 -48 17 7 21 27 5 27 -5 0 -10 7 -10 16 0 9 7 14 18 12 13 -3 16 -12 14
-39 -4 -43 19 -69 43 -49 12 10 15 9 15 -4 0 -9 -10 -21 -22 -26 l-23 -9 22 0
c12 -1 25 -6 29 -12 11 -19 6 -160 -7 -175 -19 -23 -27 -6 -38 81 -17 124 -65
140 -77 24 -3 -30 -8 -65 -10 -79 l-6 -25 -13 25 c-8 14 -14 50 -15 81 0 41
-4 58 -15 63 -25 9 -18 43 10 50 29 7 31 18 9 51 -21 33 -11 70 24 89 30 17
119 21 142 6z m-7469 -36 c23 -25 24 -26 5 -40 -14 -10 -35 -12 -70 -8 -48 5
-86 1 -214 -26 -67 -14 -105 1 -110 45 -6 50 13 55 198 55 166 0 167 0 191
-26z m-100 -158 c96 -17 138 -40 219 -118 l65 -63 -35 -6 -35 -6 31 -2 c17 0
34 -4 38 -8 4 -5 12 -9 17 -9 22 -3 23 -5 9 -14 -8 -5 -40 -10 -70 -10 -48 -1
-195 -27 -162 -29 20 -2 215 -31 245 -37 62 -13 17 -21 -144 -26 -93 -3 -173
-9 -176 -12 -12 -11 5 -17 73 -27 62 -9 95 -22 83 -33 -2 -2 -112 -6 -244 -7
-257 -3 -440 -15 -465 -30 -10 -6 7 -7 45 -2 85 11 658 7 789 -6 115 -11 156
-27 156 -61 0 -31 -30 -22 -43 13 -8 22 -63 23 -131 2 -37 -11 -102 -15 -260
-15 -116 0 -258 -4 -316 -10 -58 -5 -148 -12 -200 -15 -52 -3 -104 -6 -115 -8
-17 -2 -19 3 -17 28 2 17 9 37 16 45 8 8 16 39 19 69 12 106 162 289 307 374
60 35 70 37 145 37 44 -1 114 -7 156 -14z m1851 -132 c-5 -124 13 -144 23 -26
12 137 15 102 9 -95 l-6 -193 41 0 41 0 -2 103 -2 102 -6 -95 c-5 -80 -7 -86
-8 -35 -9 230 -15 310 -23 313 -17 7 -9 32 11 32 19 0 20 -7 22 -107 l2 -108
6 110 6 110 3 -110 c1 -60 2 -153 1 -207 -1 -58 3 -99 9 -103 28 -17 3 -25
-77 -25 -145 0 -240 -11 -247 -28 -5 -13 15 -14 160 -8 l165 7 0 -50 c0 -44
-3 -51 -20 -51 -15 0 -20 7 -20 25 0 16 -6 25 -15 25 -10 0 -15 -10 -15 -28 0
-19 -5 -29 -15 -29 -10 0 -15 10 -15 29 0 15 -4 28 -10 28 -5 0 -10 -13 -10
-30 0 -20 -5 -30 -15 -30 -10 0 -15 10 -15 30 0 17 -4 30 -10 30 -5 0 -10 -13
-10 -29 0 -27 -3 -29 -52 -35 -90 -10 -128 -18 -134 -27 -2 -5 32 -6 78 -4 72
4 78 3 43 -6 -37 -10 -71 -15 -117 -18 -10 -1 -18 -7 -18 -15 0 -8 -10 -18
-21 -21 -17 -6 -19 -9 -8 -16 8 -5 10 -9 4 -9 -5 1 -19 7 -29 15 -17 13 -18
23 -13 114 8 113 12 128 36 136 22 7 31 92 31 297 l0 139 123 -2 122 -2 -3
-103z m838 -21 c36 -31 107 -90 157 -131 l93 -74 72 13 c58 10 68 15 48 20
-14 4 -19 7 -12 8 7 1 10 6 7 11 -3 6 -3 15 1 22 5 8 10 6 15 -8 7 -17 8 -17
8 4 1 13 -3 31 -8 41 -7 13 -6 18 4 18 8 0 12 -4 9 -9 -3 -4 1 -8 8 -8 17 0
47 -50 41 -67 -3 -8 4 -13 19 -13 29 0 52 15 44 28 -3 5 6 13 19 16 17 4 23
11 19 19 -4 7 2 3 14 -7 14 -12 22 -14 22 -7 0 8 7 10 20 6 31 -10 25 20 -13
74 -47 66 -49 69 -36 77 7 4 9 3 6 -3 -4 -6 5 -21 20 -34 21 -19 25 -20 20 -6
-4 11 -3 16 3 12 6 -3 10 -13 10 -21 0 -8 4 -13 9 -9 5 3 18 -5 28 -17 10 -13
35 -37 55 -55 32 -27 41 -31 68 -23 29 8 30 7 30 -21 0 -16 -3 -29 -6 -29 -17
0 -418 -63 -474 -75 -36 -7 -93 -16 -127 -20 -54 -6 -63 -5 -63 9 0 9 11 18
25 22 14 4 25 10 23 14 -2 5 -69 67 -150 140 -82 72 -148 133 -148 136 0 2 12
4 28 4 19 0 47 -17 92 -57z m-1897 -160 c-4 -18 32 -16 47 2 21 25 47 17 64
-19 9 -19 16 -39 16 -45 0 -6 4 -11 9 -11 25 0 20 -117 -5 -127 -20 -7 -74 54
-75 86 0 23 -1 24 -9 6 -6 -15 -9 -6 -9 32 -1 42 -4 51 -16 47 -8 -4 -15 -17
-15 -30 0 -13 -5 -24 -10 -24 -12 0 -2 -80 11 -94 13 -15 11 -104 -3 -112 -8
-5 -9 -2 -5 9 5 13 1 17 -17 17 -20 0 -26 9 -42 64 -12 44 -23 63 -33 62 -13
-1 -16 10 -15 52 1 28 -3 52 -8 52 -5 0 -6 5 -3 10 3 6 -2 13 -12 18 -13 5 -3
9 32 13 70 9 100 6 98 -8z m458 -151 c132 -275 180 -405 220 -593 21 -99 22
-132 27 -744 4 -671 -1 -904 -22 -869 -7 13 -12 174 -13 534 -5 871 -8 1016
-28 1100 -29 131 -73 254 -135 381 -34 68 -58 115 -54 104 117 -339 144 -426
158 -505 14 -78 18 -198 23 -655 3 -308 2 -636 -2 -730 -7 -160 -8 -168 -23
-140 -8 17 -48 62 -88 101 -68 66 -74 75 -74 113 0 34 -10 55 -59 123 -59 82
-238 272 -286 304 -14 9 -25 23 -25 30 0 10 -14 14 -49 14 -38 0 -52 -4 -62
-21 -23 -34 -49 -15 -49 35 0 53 26 276 46 391 43 257 163 613 306 912 70 147
119 233 129 228 5 -4 32 -54 60 -113z m1309 82 c6 -14 13 -23 17 -21 5 3 14
-1 21 -9 12 -13 8 -18 -11 -15 -5 1 -6 -3 -2 -9 3 -6 10 -8 15 -5 12 7 41 -36
33 -48 -4 -6 0 -8 9 -5 12 5 14 -1 12 -29 -1 -20 -8 -39 -15 -44 -11 -6 -10
-9 4 -15 9 -3 17 -11 17 -16 0 -6 -6 -6 -14 1 -10 9 -16 9 -21 1 -5 -8 -10 -8
-20 0 -10 8 -15 6 -20 -10 -4 -12 -13 -19 -20 -16 -7 2 -20 -3 -29 -13 -16
-17 -49 -21 -62 -8 -13 13 -24 7 -24 -12 0 -12 -9 -20 -25 -23 -14 -3 -25 -1
-25 5 0 6 -10 2 -22 -9 -12 -10 -18 -13 -14 -6 11 18 -5 15 -21 -5 -13 -16
-13 -16 -7 7 4 14 8 36 9 50 4 39 4 42 14 35 6 -3 14 14 19 37 5 24 14 42 20
41 10 -3 17 16 14 39 -3 17 30 15 45 -2 24 -28 30 -25 25 14 -3 25 2 41 17 57
12 13 21 27 21 31 0 5 5 6 10 3 6 -3 10 1 10 9 0 24 9 19 20 -10z m2010 -35
c0 -10 5 -19 10 -19 13 0 41 -61 34 -72 -3 -5 0 -8 5 -8 6 0 11 -9 11 -20 0
-35 34 -16 59 33 17 32 31 35 38 7 3 -11 8 -20 12 -20 4 0 13 -16 21 -35 8
-19 18 -35 24 -35 5 0 6 -3 3 -6 -3 -4 -2 -15 3 -24 7 -13 5 -21 -5 -30 -13
-11 -13 -14 2 -27 10 -8 12 -12 6 -8 -7 3 -13 0 -13 -7 0 -10 -2 -10 -8 -1
-12 18 -52 5 -46 -15 4 -13 2 -12 -6 2 -9 13 -9 20 -2 25 16 9 1 25 -26 29
-17 3 -25 -2 -29 -17 -5 -21 -43 -30 -43 -11 0 6 -11 8 -25 6 -31 -6 -31 -3
-1 29 24 26 40 75 25 75 -5 0 -9 -7 -9 -15 0 -8 -7 -15 -15 -15 -9 0 -12 6 -9
18 5 14 4 15 -5 2 -6 -8 -11 -25 -11 -36 0 -12 -7 -25 -16 -28 -8 -3 -13 -2
-10 3 3 4 -9 21 -26 37 -18 16 -26 21 -19 11 11 -14 12 -20 2 -30 -10 -9 -12
-9 -9 1 2 8 -7 18 -19 23 -14 5 -23 5 -23 -1 0 -6 5 -10 12 -10 6 0 8 -3 4 -7
-10 -11 -46 -11 -53 0 -3 6 -1 7 5 3 8 -5 11 5 10 31 -1 20 4 39 10 41 7 2 12
13 12 24 0 14 5 18 15 14 11 -4 15 2 15 20 0 14 4 22 10 19 6 -3 10 4 10 17 0
18 2 20 10 8 5 -8 10 -12 11 -7 1 4 3 12 4 17 1 6 3 15 4 21 0 5 6 7 11 4 6
-3 10 -1 10 5 0 6 5 8 10 5 6 -3 10 -15 10 -26z m1550 -139 c28 -91 52 -173
53 -182 1 -20 23 -22 100 -12 l45 6 -15 36 c-18 43 -76 292 -70 299 6 5 31
-62 83 -219 l38 -118 33 0 c18 0 33 2 33 5 0 2 -9 28 -19 57 -36 98 -82 259
-78 271 6 17 58 -100 97 -217 17 -53 39 -103 47 -111 22 -23 9 -42 -34 -49
-21 -3 -141 -10 -268 -16 -126 -6 -248 -12 -270 -15 -22 -2 -89 -5 -149 -7
-83 -1 -111 1 -114 11 -2 7 2 17 9 22 9 6 11 12 4 17 -31 21 -193 277 -183
288 3 2 21 -20 40 -49 40 -60 138 -178 183 -219 22 -21 36 -27 55 -22 14 3 41
5 60 5 20 -1 30 2 23 7 -16 10 -28 45 -58 164 -48 186 -12 141 46 -59 32 -110
34 -113 61 -113 28 0 28 1 14 28 -19 37 -79 243 -72 249 6 6 7 3 70 -162 31
-81 47 -110 59 -109 9 0 45 1 80 2 34 1 57 6 50 10 -14 9 -59 176 -68 252 -3
30 -8 66 -11 80 -8 45 37 -83 75 -210 33 -113 38 -125 58 -122 l21 3 -24 72
c-34 99 -77 313 -60 296 3 -2 28 -78 56 -169z m-2630 87 c0 -22 -6 -23 -112
-36 -62 -7 -185 -24 -272 -36 -88 -13 -163 -22 -168 -19 -17 11 -7 32 20 39
48 13 445 73 490 74 37 1 42 -1 42 -22z m-3172 -103 c110 -5 132 -9 132 -21 0
-13 -10 -15 -62 -9 -35 3 -112 9 -173 12 -98 6 -108 5 -91 -8 17 -13 11 -15
-65 -21 -46 -4 -227 -7 -401 -7 -309 0 -318 1 -318 20 0 31 27 38 150 39 63 1
117 4 120 7 5 6 486 -2 708 -12z m3178 -39 l6 -45 47 -2 46 -1 -40 -4 c-46 -5
-72 -23 -34 -24 l24 0 -22 -9 c-13 -5 -23 -13 -23 -18 0 -10 100 -27 218 -38
41 -3 86 -10 100 -14 23 -7 21 -8 -17 -9 -47 -1 -47 -15 -1 -24 14 -3 -14 -3
-61 -1 -57 4 -89 2 -94 -5 -4 -7 6 -11 29 -11 19 0 36 -5 38 -12 3 -8 34 -13
89 -14 46 -1 138 -9 204 -18 66 -8 154 -18 195 -22 41 -4 67 -9 57 -12 -18 -4
-225 14 -282 24 l-30 6 26 -15 c14 -8 53 -17 85 -21 96 -11 124 -18 119 -27
-3 -4 11 -11 32 -14 77 -12 88 -16 74 -25 -9 -5 11 -11 50 -15 35 -4 73 -14
83 -21 13 -9 33 -11 57 -8 23 4 39 2 44 -6 4 -6 5 -13 3 -15 -6 -7 -228 13
-278 24 -25 6 -67 13 -94 17 -35 4 -45 8 -35 15 15 9 -33 14 -105 9 -21 -1
-41 2 -45 7 -10 16 -79 23 -84 9 -9 -23 -133 -28 -217 -9 -41 9 -78 21 -81 26
-4 5 -12 6 -18 3 -6 -4 -11 -3 -11 3 0 7 -8 7 -24 -1 -20 -8 -26 -20 -28 -52
l-3 -41 -60 -7 c-33 -4 -289 -33 -570 -63 -280 -30 -571 -62 -645 -70 -461
-53 -519 -55 -413 -18 34 12 64 19 67 15 3 -3 6 0 6 7 0 6 6 11 13 10 21 -4
91 13 107 26 8 7 27 15 41 18 36 9 119 57 119 69 0 5 9 6 21 3 16 -5 19 -4 14
5 -5 8 -4 11 3 6 13 -8 162 53 162 66 0 5 4 7 9 4 12 -8 142 44 136 54 -3 5 7
10 22 12 16 2 23 6 18 10 -12 7 -138 -40 -143 -54 -2 -4 -8 -6 -13 -2 -5 3 -9
0 -9 -6 0 -6 -4 -9 -9 -5 -11 6 -78 -20 -402 -156 -227 -95 -279 -112 -279
-88 0 5 -4 7 -10 4 -19 -12 -10 -25 30 -41 l40 -16 0 -234 c0 -181 3 -234 13
-234 8 0 12 16 11 47 -1 45 -1 45 3 6 3 -36 8 -43 35 -52 17 -6 99 -11 183
-11 142 0 251 -11 284 -30 8 -4 -69 -7 -170 -6 -101 1 -197 -1 -214 -5 -16 -4
-22 -7 -13 -8 12 -1 15 -6 11 -18 -4 -9 -8 -12 -10 -6 -4 12 -43 5 -43 -8 0
-5 -7 -9 -16 -9 -14 0 -15 2 -3 17 8 9 0 6 -19 -7 -25 -18 -35 -21 -44 -12
-18 18 -28 14 -29 -10 0 -22 -1 -22 -9 -3 -8 19 -9 18 -11 -5 -2 -23 -2 -23
-6 -3 -5 26 -40 27 -49 1 -7 -23 -24 -23 -25 0 -1 15 -2 15 -6 0 -5 -18 -30
-31 -44 -22 -11 7 -12 1104 -1 1104 10 0 32 -22 32 -32 0 -4 -7 -8 -16 -8 -8
0 -12 -4 -9 -10 3 -5 40 -10 81 -10 l74 0 0 -165 0 -164 83 36 c236 102 1105
453 1162 469 58 16 387 61 457 63 l47 1 7 -45z m658 -46 c83 -24 609 -230 946
-369 129 -53 244 -100 254 -104 18 -6 18 -8 3 -23 -20 -20 -53 -12 -192 47
-49 21 -299 122 -554 224 -434 175 -561 229 -561 241 0 10 34 5 104 -16z
m-3700 -32 c36 -17 60 -34 63 -47 3 -11 11 -20 19 -20 7 0 16 -4 19 -10 8 -12
-25 -1 -45 15 -51 42 -228 85 -352 85 -38 0 -50 -4 -59 -21 -7 -13 -14 -18
-18 -11 -4 7 -67 11 -171 13 l-165 2 -3 -45 -3 -45 -91 -7 c-135 -9 -371 -7
-388 4 -22 14 -3 40 50 69 41 23 54 25 239 28 130 2 197 7 200 15 2 7 97 9
325 6 l321 -4 59 -27z m-114 -233 c69 -6 121 -22 134 -42 3 -5 -16 -5 -42 -1
-55 9 -745 9 -946 0 -98 -4 -141 -10 -144 -18 -3 -10 83 -13 409 -13 227 0
410 -2 407 -5 -3 -3 -22 -6 -42 -7 -33 -1 -53 -17 -23 -19 6 0 3 -4 -8 -9 -11
-5 -76 -9 -145 -9 -69 0 -220 -3 -336 -7 -116 -4 -222 -4 -235 -1 -28 7 -54
51 -42 70 25 40 69 62 137 68 79 8 758 1 876 -7z m5093 -25 c28 -39 13 -79
-37 -98 -34 -13 -39 -12 -64 6 -37 27 -40 66 -7 98 33 34 80 31 108 -6z m1033
-29 c8 -114 14 -141 37 -149 12 -5 31 -18 41 -30 11 -11 25 -21 33 -21 10 0
13 -29 13 -139 0 -157 -8 -178 -61 -166 -43 10 -69 -2 -69 -31 0 -24 -1 -24
-102 -24 l-102 0 29 30 28 29 -7 156 c-4 85 -9 162 -13 171 -3 8 -17 21 -31
28 -23 12 -28 11 -49 -12 -22 -24 -23 -31 -23 -183 0 -187 -5 -206 -62 -211
-49 -5 -52 -1 -32 31 15 21 16 44 10 169 -6 141 -7 145 -35 178 -16 18 -31 32
-33 31 -2 -1 2 3 9 9 21 19 15 23 -19 14 -18 -5 -45 -24 -60 -42 l-28 -32 0
-168 c0 -105 4 -168 10 -168 6 0 11 55 12 143 2 191 2 185 19 203 14 14 16 3
18 -110 1 -69 -1 -157 -5 -195 l-6 -69 -49 0 c-45 -1 -49 1 -49 24 0 14 6 24
15 24 12 0 14 22 10 147 -4 129 -7 149 -25 170 -17 19 -24 22 -40 13 -19 -10
-20 -21 -20 -173 0 -89 -3 -172 -6 -184 -5 -18 -15 -23 -53 -26 -57 -4 456
-11 592 -7 l97 2 0 -43 0 -44 -423 1 -422 1 0 34 c0 31 3 34 33 37 17 2 32 9
32 15 0 8 3 8 9 -1 4 -7 11 120 14 283 3 164 7 298 9 300 3 3 716 43 736 41 9
-1 15 -19 18 -56z m-7006 -256 c0 -85 -2 -154 -5 -154 -4 0 -19 7 -34 14 l-28
15 -6 137 c-3 75 -4 140 -2 144 2 3 20 4 39 2 l36 -4 0 -154z m650 -3 l0 -160
-31 -22 -30 -21 -32 34 c-46 50 -222 162 -357 226 -63 30 -119 57 -124 60 -5
3 -7 -61 -4 -147 2 -83 0 -151 -5 -151 -4 0 -17 5 -28 10 -18 10 -19 23 -19
170 l0 160 315 0 315 0 0 -159z m-375 -69 c179 -118 245 -175 245 -211 0 -17
-3 -16 -28 7 -29 27 -248 182 -257 182 -20 0 22 -38 108 -101 56 -40 116 -85
134 -100 30 -26 31 -28 12 -34 -14 -5 -47 10 -111 49 -50 31 -93 54 -95 52 -9
-8 7 -25 55 -58 26 -17 65 -49 87 -69 29 -28 43 -35 52 -27 10 8 13 6 13 -5 0
-23 -22 -67 -33 -67 -12 0 -58 37 -57 45 1 4 -18 16 -41 28 -24 12 -63 40 -87
63 -40 39 -44 46 -38 78 6 31 2 39 -50 95 -31 34 -60 61 -65 61 -15 0 -10 -27
7 -41 22 -18 70 -89 78 -117 7 -21 4 -20 -42 12 -55 40 -62 58 -62 158 l0 60
45 -49 c28 -29 45 -42 45 -32 0 25 -42 81 -75 99 -16 9 -32 25 -33 34 -2 10 0
16 5 13 4 -3 89 -59 188 -125z m5344 44 c-19 -19 -360 -208 -489 -272 -88 -43
-188 -78 -168 -59 4 4 114 64 597 321 62 33 90 38 60 10z m-3093 -20 c38 -13
116 -51 174 -85 152 -87 244 -130 302 -137 46 -6 51 -5 45 10 -5 11 -3 15 5
10 8 -5 9 -2 3 12 -4 10 -8 27 -9 36 0 9 -3 15 -6 13 -3 -2 -16 15 -29 38
l-24 42 24 -17 c13 -9 23 -23 21 -32 -2 -9 2 -15 9 -14 6 2 27 -20 47 -48 75
-104 127 -164 144 -164 26 0 30 16 14 49 -18 34 -10 41 54 41 l38 0 -15 40
c-12 29 -13 44 -6 51 15 15 34 2 26 -18 -4 -10 -2 -14 4 -10 5 3 26 -24 45
-61 38 -70 45 -77 66 -63 12 7 11 14 -2 39 -16 30 -15 31 12 36 15 3 65 6 112
7 69 1 137 12 158 25 2 2 -12 31 -32 66 -30 52 -31 57 -9 28 16 -19 49 -57 75
-85 26 -27 55 -61 66 -74 19 -24 21 -24 73 -12 30 7 70 11 89 9 31 -3 35 -6
35 -33 l0 -30 -190 -12 c-104 -7 -330 -23 -502 -36 -172 -12 -317 -21 -322
-19 -6 2 -11 10 -11 18 0 14 8 16 87 31 l42 8 -302 153 c-166 84 -322 159
-347 166 -26 8 -46 20 -48 30 -4 21 2 20 84 -8z m3569 -86 c1 -3 5 -20 9 -37
9 -41 -1 -76 -20 -69 -8 3 -14 -1 -14 -9 0 -11 -6 -12 -22 -6 -25 9 -56 -13
-52 -36 1 -7 2 -17 3 -22 0 -5 7 -11 14 -14 6 -2 4 -3 -5 -2 -10 2 -18 -1 -18
-7 0 -6 -9 -8 -21 -5 -15 4 -29 -3 -47 -21 -14 -15 -23 -20 -19 -11 3 9 2 33
-3 53 -6 28 -5 36 6 36 8 0 14 5 14 11 0 5 4 8 9 5 5 -3 12 1 15 10 3 8 10 13
15 10 5 -3 12 10 15 29 4 19 11 35 16 35 5 0 7 6 4 14 -3 7 2 16 10 19 9 4 16
14 16 22 0 9 4 14 9 11 4 -3 14 7 20 22 l13 27 16 -30 c9 -17 17 -32 17 -35z
m-4991 -47 c-10 -43 -18 -79 -19 -81 -1 -1 -52 14 -113 33 -123 39 -132 51
-59 80 43 17 199 55 206 49 1 -1 -5 -38 -15 -81z m-342 -297 c29 -20 139 -95
243 -165 266 -179 302 -217 400 -425 32 -69 75 -141 109 -182 54 -67 67 -94
46 -94 -6 0 -22 11 -35 24 -14 14 -27 20 -30 15 -11 -16 -37 -10 -42 11 -7 26
-19 25 -26 -2 -5 -18 -8 -19 -21 -8 -9 7 -16 23 -16 35 0 12 -6 28 -14 34 -17
14 -26 -12 -26 -76 0 -114 -38 7 -42 133 l-1 59 -7 -50 c-4 -27 -8 -41 -10
-30 -2 11 -6 -16 -10 -60 -5 -68 -7 -75 -14 -50 -5 16 -15 35 -21 42 -7 6 -15
31 -19 54 -11 68 -18 37 -17 -70 2 -94 -10 -136 -25 -96 -5 11 -9 13 -14 5 -4
-6 -12 35 -19 92 -31 257 -28 246 -30 132 -1 -95 -2 -102 -22 -107 -16 -4 -20
-11 -16 -26 3 -11 0 -22 -7 -25 -6 -2 -3 -5 6 -5 11 -1 15 -6 12 -15 -3 -8
-13 -12 -24 -9 -21 6 -22 12 -45 198 l-13 110 -1 -94 c-1 -88 -2 -93 -21 -88
-11 3 -20 0 -20 -6 -1 -40 -87 114 -139 248 -37 97 -44 130 -71 314 -11 80
-23 147 -26 150 -6 6 -3 -23 22 -219 9 -69 18 -152 21 -185 2 -33 9 -70 15
-82 6 -13 9 -25 6 -28 -3 -3 -56 13 -118 35 -167 60 -157 35 14 -35 108 -45
123 -54 130 -78 3 -14 1 -17 -12 -12 -28 12 -115 36 -145 41 -15 2 -41 11 -58
20 -17 8 -33 13 -36 11 -10 -11 47 -38 143 -71 74 -24 100 -38 103 -52 2 -10
8 -23 15 -27 21 -16 -120 5 -186 27 -38 12 -68 19 -68 16 0 -31 138 -80 227
-80 63 0 83 -7 76 -26 -4 -12 -16 -13 -51 -8 -32 5 -43 4 -38 -5 5 -7 -5 -11
-29 -11 -52 0 -34 -17 33 -30 101 -20 163 -68 81 -63 -105 7 -179 -1 -141 -14
32 -12 72 -56 67 -74 -5 -13 4 -25 34 -45 23 -15 41 -33 41 -40 0 -8 3 -14 8
-14 4 0 13 -10 21 -22 14 -23 32 -78 26 -78 -8 0 -121 95 -154 130 -92 95
-236 270 -256 310 -55 109 -72 240 -41 327 13 38 25 120 41 298 8 77 18 111
43 138 14 16 28 18 79 15 53 -3 71 -10 115 -42z m6548 34 c11 -6 16 -17 13
-29 -3 -10 0 -22 7 -26 8 -5 6 -13 -7 -27 -13 -15 -15 -22 -5 -25 17 -6 15
-48 -3 -63 -8 -7 -15 -16 -15 -21 0 -5 7 -9 15 -9 24 0 18 -46 -9 -72 -16 -15
-31 -48 -42 -93 -9 -38 -25 -88 -36 -110 l-18 -40 5 55 c11 114 14 164 9 140
-3 -14 -14 -72 -24 -129 -22 -117 -56 -197 -132 -313 -52 -80 -84 -102 -72
-50 3 15 8 44 11 64 5 37 5 37 -20 25 -15 -7 -28 -24 -33 -42 -9 -38 -6 -32
-34 -88 -23 -45 -25 -46 -34 -25 -8 20 -10 20 -13 6 -6 -24 -50 -24 -55 -1 -3
15 -6 14 -26 -7 -19 -20 -22 -21 -22 -6 0 10 -5 16 -12 13 -7 -2 -12 -10 -11
-16 2 -6 -5 -11 -15 -11 -13 0 -22 -12 -29 -37 l-10 -38 -8 45 c-5 25 -10 39
-13 32 -8 -25 -32 -12 -32 18 0 17 -4 30 -8 30 -13 0 -32 -47 -32 -76 0 -39
-17 -19 -31 36 -15 60 -39 68 -39 13 0 -52 -19 -81 -21 -33 l-1 35 -8 -30 -8
-30 -1 30 c-1 17 -4 48 -7 70 -5 36 -1 44 36 85 22 25 43 56 47 70 3 14 28 72
55 129 71 145 131 202 428 401 129 87 236 159 238 159 2 1 12 -3 22 -9z
m-3280 -70 c0 -29 -1 -30 -47 -30 -27 0 -151 -7 -278 -14 -126 -8 -305 -18
-396 -22 l-166 -7 -6 24 c-3 13 -5 24 -3 26 1 2 146 12 322 23 307 19 393 24
517 28 l57 2 0 -30z m2748 24 c13 -4 22 -14 22 -25 0 -18 -7 -19 -97 -14 -54
2 -182 7 -284 10 l-187 5 -7 -73 -6 -74 -257 -6 c-141 -4 -260 -11 -265 -16
-5 -5 109 -6 265 -4 242 5 271 4 258 -10 -18 -18 -70 -31 -70 -18 0 14 -11 14
-265 12 l-230 -2 -27 -30 c-16 -16 -28 -36 -28 -44 0 -10 -11 -16 -32 -17
l-33 -1 32 -4 c36 -5 40 -14 35 -82 l-4 -47 -44 21 -44 20 0 120 0 120 197 -4
c109 -1 267 0 351 4 128 6 152 10 152 23 0 14 -37 15 -349 9 l-349 -7 -7 30
c-4 16 -4 34 0 40 4 6 86 10 225 10 213 0 220 1 240 22 11 12 20 25 20 30 0 9
753 11 788 2z m1108 -99 c44 -72 82 -159 99 -225 19 -73 19 -90 0 -90 -8 0
-15 -4 -15 -10 0 -5 7 -10 15 -10 11 0 15 -12 15 -44 0 -50 -7 -76 -22 -76 -5
0 -6 5 -3 10 3 6 2 10 -2 10 -5 0 -14 -9 -21 -20 -7 -11 -17 -20 -22 -20 -13
0 -12 72 1 129 5 24 8 46 5 48 -2 2 -9 -20 -16 -49 -17 -73 -89 -221 -142
-293 -77 -103 -140 -168 -149 -153 -6 9 -9 7 -9 -9 0 -39 -137 -132 -196 -133
-12 0 -27 7 -34 15 -13 16 -10 21 87 151 60 81 111 183 120 240 4 27 18 51 45
76 33 33 38 44 38 85 1 89 15 123 73 177 48 45 55 58 67 112 7 34 10 86 6 119
-6 57 -5 57 12 34 10 -13 32 -46 48 -74z m-7720 -75 c22 -78 29 -90 88 -150
50 -51 68 -77 80 -118 8 -29 24 -69 35 -90 11 -20 26 -70 35 -109 19 -90 40
-131 106 -208 43 -51 106 -136 133 -182 9 -15 -100 10 -146 33 -88 45 -243
198 -321 316 -50 76 -74 140 -102 273 -12 61 -23 98 -23 83 -2 -53 21 -184 44
-257 l24 -75 -39 44 c-22 25 -39 39 -40 32 0 -8 23 -39 50 -70 28 -31 50 -60
50 -65 0 -9 -7 -8 -69 9 -19 6 -22 3 -20 -11 3 -12 23 -25 59 -37 58 -20 109
-57 60 -44 -56 14 -110 18 -110 8 0 -12 62 -38 116 -48 37 -7 54 -18 54 -38 0
-5 -34 -6 -76 -4 -72 5 -75 4 -57 -12 17 -17 97 -41 176 -55 21 -3 59 -19 84
-36 47 -29 47 -29 17 -29 -17 0 -33 2 -36 5 -3 3 -44 7 -92 9 -68 3 -84 1 -76
-9 15 -19 82 -33 201 -44 59 -6 140 -19 180 -30 41 -10 86 -22 101 -25 16 -4
27 -11 25 -17 -1 -7 4 -14 11 -16 6 -3 12 2 12 11 0 20 16 21 27 2 14 -23 223
-155 331 -208 56 -28 102 -52 102 -55 0 -2 -4 -1 -10 2 -5 3 -10 2 -10 -4 0
-9 -57 -44 -85 -52 -13 -3 -90 -36 -140 -59 -54 -25 -90 -33 -150 -33 -37 0
-45 -2 -30 -9 14 -6 6 -7 -25 -3 -66 7 -82 11 -136 35 -78 34 -90 40 -119 68
l-28 26 24 10 c13 6 27 14 30 18 3 5 25 -7 50 -25 61 -47 155 -64 256 -47 2 0
10 11 18 24 15 23 14 25 -12 54 -36 38 -117 82 -154 82 -16 0 -58 -11 -94 -25
-56 -21 -67 -22 -71 -10 -10 24 -27 17 -20 -8 4 -19 0 -25 -26 -35 -37 -14
-52 -5 -85 55 l-21 38 96 0 c108 0 192 11 192 26 0 5 -46 9 -102 9 -96 1 -101
2 -73 15 44 20 68 42 60 54 -3 6 0 11 7 11 9 0 9 3 -2 10 -8 5 -35 7 -60 4
-53 -7 -151 16 -219 51 -116 59 -195 187 -211 341 -35 338 -35 356 -9 459 21
83 81 213 123 264 9 12 12 9 14 -15 2 -16 14 -67 28 -114z m5932 -223 c1 -107
6 -177 12 -177 6 0 10 52 10 130 0 127 11 185 34 177 17 -6 24 -52 25 -177 1
-68 5 -120 12 -127 7 -7 8 -28 4 -57 l-7 -46 -110 0 -109 0 -70 57 -69 57 -1
55 c-2 122 -1 162 5 168 3 4 6 15 6 26 0 11 3 17 7 13 4 -4 6 -68 4 -142 -2
-96 1 -134 8 -129 7 4 11 50 11 121 0 69 4 114 10 114 10 0 13 -44 11 -165 -1
-66 2 -75 40 -92 20 -9 29 -8 47 6 20 15 21 26 23 156 2 121 0 145 -16 168
-17 27 -18 27 -119 23 -55 -2 -105 -5 -111 -6 -5 -1 -19 -2 -30 -1 -17 1 -18
3 -5 11 8 5 88 10 177 10 183 0 167 8 177 -85 2 -22 3 -10 2 28 0 41 3 66 9
64 6 -2 11 -74 13 -180z m-1158 -72 l0 -145 -40 0 -40 0 0 76 0 77 -40 -44
-40 -44 -35 39 -35 39 0 -75 c0 -81 -4 -88 -56 -88 l-24 0 0 145 0 145 32 0
c25 0 43 -10 78 -44 l45 -45 45 54 c37 44 51 54 78 54 l32 1 0 -145z m-503
-12 c60 -140 67 -163 55 -163 -5 0 -23 -3 -41 -6 -27 -6 -32 -3 -41 20 -8 23
-15 26 -55 26 -40 0 -47 -3 -56 -27 -6 -15 -16 -31 -22 -35 -16 -10 -67 -10
-67 0 0 4 21 62 46 127 25 66 50 132 56 148 8 22 16 27 43 27 32 0 33 -2 82
-117z m-369 54 l3 -37 -50 0 c-61 0 -81 -7 -81 -30 0 -15 7 -16 50 -12 49 4
50 4 50 -22 0 -14 0 -29 0 -33 0 -5 -21 -10 -47 -13 -38 -4 -49 -9 -51 -25 -3
-19 2 -20 63 -17 l66 4 -3 -33 c-3 -37 -12 -40 -145 -52 l-63 -5 0 148 0 149
43 5 c51 7 126 13 147 12 10 -1 16 -14 18 -39z m1246 6 c34 -24 51 -29 123
-32 74 -3 83 -5 83 -22 0 -30 -43 -40 -164 -37 l-110 3 -9 43 c-15 78 8 92 77
45z m-1594 -28 c0 -31 -3 -35 -35 -41 l-35 -6 0 -108 c0 -116 -2 -120 -55
-120 -24 0 -24 1 -27 112 l-3 113 -38 -3 -38 -4 3 39 c3 37 4 38 48 44 25 3
75 7 113 7 l67 2 0 -35z m-696 -141 c10 -26 7 -69 -6 -82 -7 -7 -33 -12 -58
-12 -25 0 -72 -7 -103 -15 -76 -20 -77 -20 -77 14 0 37 16 50 90 67 34 8 73
21 88 29 35 19 58 19 66 -1z m-1349 -122 c44 -23 104 -72 88 -72 -7 0 -5 -23
4 -62 13 -58 13 -63 -4 -75 -9 -8 -24 -11 -31 -8 -8 3 -31 5 -51 5 l-38 0 -57
119 c-31 66 -56 124 -56 130 0 13 96 -11 145 -37z m4338 -149 c4 -58 7 -252 7
-430 l0 -325 123 8 c67 4 136 8 152 8 l30 1 0 -145 0 -145 -85 -8 c-298 -27
-516 -44 -522 -40 -5 2 -8 265 -8 583 l0 578 73 6 c137 12 152 13 188 14 l36
2 6 -107z m-654 25 c42 -135 271 -1069 271 -1108 0 -11 -51 -18 -191 -25
l-115 -7 -27 89 c-15 48 -27 94 -27 101 0 10 -10 12 -37 8 -21 -3 -82 -8 -136
-11 -59 -4 -103 -12 -111 -20 -7 -7 -19 -49 -26 -92 -20 -113 -20 -113 -202
-128 -84 -7 -154 -12 -156 -10 -1 1 18 74 44 161 77 267 124 435 149 529 46
180 137 500 143 507 7 6 279 34 364 37 44 1 47 -1 57 -31z m-849 -89 c228
-107 275 -390 108 -656 -93 -147 -203 -204 -425 -218 l-103 -7 0 -128 c0 -90
-4 -131 -12 -138 -7 -5 -77 -13 -155 -17 l-142 -7 -3 128 c-5 182 -10 1034 -6
1035 21 9 465 37 558 35 111 -1 131 -4 180 -27z m-862 -170 l3 -147 -53 -6
c-29 -3 -116 -11 -193 -17 -77 -6 -143 -13 -148 -16 -5 -3 -7 -28 -5 -57 l3
-51 133 4 132 3 0 -135 c0 -75 -3 -138 -7 -140 -5 -3 -65 -11 -135 -18 l-128
-13 0 -78 c0 -43 3 -78 8 -78 4 0 84 7 177 15 94 8 180 15 193 15 22 0 22 -1
22 -145 0 -131 -2 -145 -17 -145 -10 0 -97 -7 -193 -16 -361 -32 -485 -41
-492 -37 -5 2 -8 263 -8 579 0 450 3 576 13 579 16 7 623 53 662 51 l30 -1 3
-146z m-818 -499 l0 -578 -22 -5 c-13 -3 -75 -9 -138 -12 -63 -4 -125 -8 -137
-10 -28 -4 -24 -10 -98 155 -116 258 -178 380 -192 380 -12 0 -13 -40 -8 -262
4 -145 8 -268 10 -274 6 -21 -38 -32 -162 -43 -66 -6 -131 -11 -142 -11 l-21
0 0 584 0 584 64 7 c36 4 115 8 177 9 l113 1 140 -273 141 -273 5 293 5 293
125 10 c69 6 128 9 133 7 4 -2 7 -263 7 -582z m2145 -622 c-55 -45 -125 -119
-125 -134 0 -7 -5 -14 -11 -16 -13 -4 -2 -35 15 -41 7 -3 13 1 13 9 0 7 -4 11
-9 8 -4 -3 -8 -3 -8 0 0 9 190 137 225 152 31 12 51 12 170 -3 128 -16 134
-17 119 -34 -29 -32 -217 -119 -302 -140 -84 -21 -126 -21 -252 -2 -31 5 -88
6 -128 3 -39 -3 -72 -2 -72 2 0 4 -6 5 -13 2 -23 -9 -14 40 13 64 36 32 157
103 214 124 42 16 118 32 176 37 8 0 -3 -13 -25 -31z m-1675 -94 c36 -8 98
-31 139 -51 l73 -36 -53 -47 c-209 -182 -242 -204 -277 -181 -10 6 -6 11 16
19 29 10 90 77 80 88 -3 2 -25 0 -49 -5 -77 -18 -210 -13 -285 10 -87 27 -169
68 -158 79 5 4 52 22 104 40 119 41 175 38 304 -15 93 -38 121 -41 90 -10 -28
27 -134 95 -161 101 -13 4 -20 10 -17 15 8 14 123 10 194 -7z m272 -205 l-4
-77 -82 -32 c-82 -33 -176 -51 -176 -33 0 5 38 45 85 88 128 116 167 147 175
138 4 -4 5 -42 2 -84z m1091 -6 c37 -24 67 -51 67 -59 0 -11 5 -14 17 -10 10
4 14 4 10 0 -4 -4 5 -16 20 -26 l28 -18 -32 0 c-17 0 -34 -4 -37 -8 -7 -11
-112 3 -201 26 -59 15 -71 22 -73 41 -2 13 0 21 5 18 5 -3 8 7 7 21 -1 27 10
53 35 84 16 20 14 21 154 -69z m-619 20 l14 -28 7 28 c9 36 31 29 27 -9 l-4
-29 27 25 27 25 -7 -33 c-7 -32 -6 -33 15 -22 30 16 37 5 17 -29 -16 -28 -16
-28 8 -23 30 5 31 -2 5 -36 -16 -19 -18 -27 -8 -33 7 -4 16 -5 21 -2 5 3 4 -4
-2 -16 -7 -11 -21 -21 -31 -21 -21 0 -27 -15 -10 -25 17 -11 11 -28 -9 -22
-14 3 -17 0 -14 -14 6 -20 -11 -26 -22 -9 -10 17 -25 11 -25 -10 0 -26 -14
-25 -33 3 l-16 22 -7 -22 c-8 -29 -34 -30 -34 -3 0 17 -3 19 -19 10 -28 -15
-34 -13 -28 10 4 16 0 20 -19 20 -24 0 -32 14 -14 25 17 11 11 23 -15 29 -31
8 -32 22 -3 32 l21 6 -24 19 c-26 19 -23 29 10 32 26 2 26 2 1 25 -27 25 -18
57 12 39 16 -9 22 -9 25 1 3 6 10 9 16 6 9 -5 9 -4 0 6 -9 9 -9 15 0 25 10 11
15 10 30 -3 17 -15 18 -14 24 6 7 29 19 28 37 -5z"/>
<path d="M3155 7751 c-6 -5 -66 -41 -135 -79 -69 -38 -152 -86 -185 -106 -69
-42 -74 -42 -140 -17 l-49 19 74 37 c101 51 162 86 156 92 -2 3 -35 -13 -73
-34 -141 -81 -172 -95 -196 -87 -12 4 -26 13 -32 21 -6 7 -26 15 -45 17 -19 2
-25 1 -13 -1 25 -5 40 -40 24 -56 -6 -6 -11 -21 -11 -34 0 -27 -12 -30 -30 -8
-7 9 -19 14 -26 11 -7 -3 -79 15 -159 40 -80 24 -151 41 -157 38 -6 -4 -8 -3
-5 3 4 7 -11 11 -43 11 -48 0 -65 -10 -37 -22 6 -3 -12 -2 -40 1 -33 3 -53 2
-53 -5 0 -5 9 -12 20 -15 11 -3 18 -11 15 -19 -2 -7 11 -24 29 -38 19 -14 33
-26 31 -28 -1 -2 -55 9 -119 24 -91 22 -120 25 -138 16 l-23 -11 23 0 c22 -1
249 -55 377 -91 39 -11 104 -21 147 -22 42 -2 74 -6 72 -10 -3 -4 -73 -41
-157 -81 -149 -73 -203 -109 -192 -128 11 -17 19 -15 357 108 53 19 105 33
115 30 13 -3 12 -5 -7 -6 -26 -2 -123 -39 -104 -40 6 -1 30 5 52 13 36 13 47
13 114 -5 40 -11 118 -22 173 -24 73 -3 89 -1 60 5 -30 7 -18 8 47 4 90 -4
138 7 138 33 0 7 8 13 18 13 20 0 90 35 112 57 13 12 13 13 -3 7 -20 -7 -147
25 -147 38 0 18 27 17 90 -2 64 -19 65 -19 42 0 -22 18 -110 50 -137 50 -8 0
-10 -10 -8 -25 6 -29 -42 -77 -69 -69 -13 4 -16 1 -12 -10 6 -16 -34 -32 -58
-23 -7 3 -1 6 15 6 31 1 35 16 11 42 -16 17 -18 17 -52 -6 -41 -28 -62 -31
-80 -13 -20 20 -14 38 13 38 25 0 29 7 25 48 -1 12 0 22 3 22 2 0 28 -22 57
-49 30 -28 58 -47 62 -45 14 9 9 44 -6 44 -8 0 -27 5 -41 10 -23 9 -25 13 -14
26 10 12 25 14 63 10 40 -5 46 -4 27 4 -13 6 -22 12 -20 14 2 2 48 35 101 74
97 70 178 151 178 178 0 16 -12 18 -25 5z"/>
<path d="M1742 7469 c-12 -18 -9 -24 25 -55 20 -19 43 -32 50 -30 7 3 13 1 13
-5 0 -6 4 -8 9 -5 5 3 66 -14 136 -38 l127 -43 29 24 c16 14 29 28 29 33 0 4
-28 15 -62 25 -35 9 -112 35 -173 58 -60 22 -120 40 -132 39 -13 -1 -23 3 -23
8 0 17 -14 11 -28 -11z"/>
<path d="M7194 6859 c-11 -18 29 -61 102 -110 38 -26 68 -51 67 -55 -2 -13 90
-11 94 2 5 14 -145 128 -203 153 -55 25 -51 24 -60 10z"/>
<path d="M6875 5690 c-10 -61 -32 -102 -53 -98 -10 2 -25 25 -36 58 l-20 54
-14 -62 c-10 -46 -18 -63 -34 -68 -27 -8 -35 2 -51 65 -14 53 -29 51 -23 -3 2
-14 -1 -23 -7 -19 -12 7 -27 -16 -27 -43 0 -12 -10 -26 -22 -33 -20 -10 -17
-10 17 -5 22 4 56 8 76 9 20 1 41 5 45 8 5 2 43 10 84 16 41 6 102 17 135 24
l60 12 -40 5 c-39 5 -41 7 -61 65 l-21 60 -8 -45z"/>
<path d="M6226 2220 c-3 -8 -19 -69 -36 -135 -16 -66 -33 -130 -36 -142 -6
-22 -4 -23 52 -22 33 1 71 4 85 8 l26 6 -42 150 c-24 83 -45 143 -49 135z"/>
<path d="M5253 2243 l-53 -4 0 -146 0 -146 104 6 c64 4 116 12 135 21 35 19
69 64 77 103 8 43 -14 112 -46 145 -30 30 -54 32 -217 21z"/>
<path d="M6812 8680 c-43 -10 -55 -22 -14 -14 43 9 188 -14 232 -36 72 -37
115 -117 107 -197 -3 -29 -2 -51 3 -48 27 17 -24 -177 -54 -208 -7 -7 -11 -18
-8 -26 3 -9 0 -11 -8 -6 -8 5 -11 4 -7 -2 4 -6 -1 -25 -9 -43 -12 -24 -19 -29
-25 -19 -5 9 -3 17 7 22 8 5 12 13 8 18 -3 5 10 50 30 98 20 49 36 94 36 100
0 7 5 9 10 6 6 -3 10 1 10 10 0 9 -4 13 -10 10 -6 -4 -10 13 -10 44 0 62 -33
153 -71 195 l-28 31 16 -45 c23 -65 23 -246 -1 -325 -27 -92 -117 -339 -127
-349 -13 -15 -12 -1 20 192 34 199 53 361 45 374 -7 12 -72 10 -96 -3 -17 -9
-18 -13 -7 -20 12 -8 12 -10 0 -18 -11 -7 -14 -47 -13 -202 1 -107 4 -223 7
-259 9 -100 -8 -55 -48 125 -70 311 -81 432 -46 497 12 22 12 22 -12 7 -35
-23 -58 -100 -58 -194 -1 -82 17 -173 63 -320 14 -43 23 -81 21 -83 -2 -2 -19
27 -38 65 -88 173 -122 299 -114 418 5 82 -3 88 -28 20 -13 -34 -16 -64 -13
-127 6 -98 29 -163 97 -277 27 -45 45 -78 39 -75 -6 4 -8 -2 -6 -12 2 -11 10
-18 17 -16 9 2 11 -3 6 -15 -19 -45 -16 -63 16 -114 39 -59 59 -69 135 -69 48
0 60 4 85 29 27 28 30 37 33 116 1 11 14 37 29 57 16 20 26 41 23 47 -8 13 4
41 18 41 6 0 35 52 64 115 49 107 52 119 52 192 -1 130 -53 206 -185 270 -72
34 -121 40 -193 23z"/>
<path d="M5807 8122 c8 -32 163 -183 282 -275 112 -87 212 -153 301 -197 25
-12 52 -28 60 -35 8 -7 31 -17 50 -23 28 -9 32 -9 19 1 -9 6 -16 14 -15 17 2
12 -99 93 -218 174 -70 48 -147 102 -170 119 -24 18 -62 46 -85 62 -23 17 -71
53 -106 82 -36 28 -78 61 -94 72 -27 19 -29 20 -24 3z"/>
<path d="M5791 7909 c18 -23 59 -63 91 -90 47 -39 66 -49 96 -49 43 0 132 -55
176 -107 15 -18 56 -46 90 -63 67 -31 211 -70 261 -70 27 1 28 2 11 12 -11 6
-30 12 -42 14 -13 1 -38 13 -56 27 -56 41 -120 74 -187 96 -36 12 -67 25 -70
29 -6 8 -173 125 -209 147 -9 6 -19 13 -22 16 -13 17 -131 79 -150 79 -20 0
-20 -2 11 -41z"/>
<path d="M6230 7885 c0 -2 37 -32 82 -66 44 -34 113 -90 152 -124 76 -67 138
-109 200 -137 45 -21 46 -21 46 -7 0 15 -124 115 -229 185 -20 13 -55 37 -79
54 -23 16 -45 30 -48 30 -3 0 -17 11 -31 24 -15 14 -31 22 -36 19 -5 -3 -13 0
-17 8 -8 11 -40 23 -40 14z"/>
<path d="M5951 7703 c48 -58 148 -133 278 -209 96 -55 249 -82 473 -83 105 -1
118 1 127 18 9 16 5 21 -32 34 -52 19 -189 33 -185 19 4 -14 -8 -15 -72 -7
-69 9 -209 49 -261 75 -42 22 -45 20 -28 -12 l11 -21 -28 21 c-16 11 -55 43
-88 70 -62 54 -162 112 -191 112 -15 0 -16 -2 -4 -17z"/>
<path d="M5150 6244 c0 -20 5 -24 33 -24 51 0 144 -19 222 -44 39 -13 89 -27
113 -30 40 -6 42 -5 42 19 0 30 -31 41 -90 31 -46 -7 -90 7 -90 30 0 12 -6 15
-21 11 -25 -7 -51 2 -43 14 3 5 0 9 -5 9 -6 0 -11 -5 -11 -10 0 -7 -7 -7 -20
0 -12 6 -45 12 -75 14 -52 3 -55 2 -55 -20z"/>
</g>
</svg>
